<svg xmlns="http://www.w3.org/2000/svg" viewBox="0 0 576 512">
  <!-- Font Awesome Free 6.5.1 by @fontawesome -  https://fontawesome.com License -  https://fontawesome.com/license/free
       Copyright 2024 Fonticons, Inc. -->
  <path fill="#ffffff"
        d="M 0 24
           C 0 10.7 10.7 0 24 0
           H 69.5
              c 22 0 41.5 12.8 50.6 32
           h 411
              c 26.3 0 45.5 25 38.6 50.4
           l -41 152.3
              c -8.5 31.4 -37 53.3 -69.5 53.3
           H 170.7
              l 5.4 28.5
              c 2.2 11.3 12.1 19.5 23.6 19.5
           H 488
              c 13.3 0 24 10.7 24 24
              s -10.7 24 -24 24
           H 199.7
              c -34.6 0 -64.3 -24.6 -70.7 -58.5
           L 77.4 54.5
              c -.7 -3.8 -4 -6.5 -7.9 -6.5
           H 24
              C 10.7 48 0 37.3 0 24
           z
           M 128 464
              a 48 48 0 1 1 96 0
              a 48 48 0 1 1 -96 0
           z
           M 384 416
              a 48 48 0 1 1 0 96
              a 48 48 0 1 1 0 -96
           z
           M 252 160
              c 0 11 9 20 20 20
              h 44
              v 44
              c 0 11 9 20 20 20
              s 20 -9 20 -20
           V 180
              h 44
              c 11 0 20 -9 20 -20
              s -9 -20 -20 -20
           H 356
              V 96
              c 0 -11 -9 -20 -20 -20
              s -20 9 -20 20
           v 44
              H 272
              c -11 0 -20 9 -20 20
           z"
  />
</svg>